<svg version="1.1" xmlns="http://www.w3.org/2000/svg" viewBox="0 0 170 170" >
<rect width="170" height="170" rx="85" fill="#232F3E" />
<path fill="#FFFFFF" opacity="1.000000" stroke="none"
	d="
M170.999847,572.000000
	C170.999847,511.856598 170.970459,452.213135 171.108459,392.570038
	C171.113922,390.208710 172.079819,387.252991 173.661316,385.577881
	C236.906357,318.588654 300.274231,251.715363 363.629486,184.830200
	C364.086060,184.348221 364.587219,183.908463 365.550262,182.987259
	C365.550262,333.726227 365.550262,483.970703 365.550262,634.751160
	C364.502319,634.818359 363.085144,634.988281 361.667938,634.988647
	C306.689392,635.002075 251.710831,635.014526 196.732285,634.990051
	C182.421783,634.983704 171.157608,623.832886 171.026917,609.485352
	C170.914642,597.157837 171.001205,584.828491 170.999847,572.000000
z"/>
<path fill="#EE931E" opacity="1.000000" stroke="none"
	d="
M62.138962,90.101349
	C88.623108,94.974854 113.900536,92.085686 138.562439,82.652481
	C140.126114,82.054375 142.089371,82.500862 143.866730,82.461388
	C142.881088,83.958427 142.233978,85.970634 140.858536,86.874489
	C123.031227,98.589401 103.203506,103.461220 82.090858,102.790298
	C58.372467,102.036575 37.212372,93.989326 18.863590,78.826530
	C17.440805,77.650787 16.258062,76.184570 15.416072,74.076118
	C30.386381,81.110016 45.442261,87.357353 62.138962,90.101349
z"/>
<path fill="#EA911E" opacity="1.000000" stroke="none"
	d="
M143.775055,76.478294
	C139.077911,76.686592 134.839661,76.949707 130.601410,77.212822
	C130.418091,76.585785 130.234772,75.958740 130.051468,75.331696
	C133.689117,73.977211 137.275421,71.698586 140.976883,71.493027
	C146.050079,71.211273 151.210648,72.502861 156.333771,73.120171
	C155.570770,77.919022 155.428818,82.935188 153.849548,87.448402
	C152.571671,91.100227 149.563507,94.146576 147.322876,97.461502
	C146.719162,97.178368 146.115433,96.895233 145.511719,96.612099
	C145.955261,95.048981 146.363617,93.474823 146.850098,91.925194
	C147.694153,89.236626 148.737381,86.601395 149.427017,83.875473
	C150.826508,78.343681 150.097061,77.403252 143.775055,76.478294
z"/>
</svg>
