<svg version="1.1" xmlns="http://www.w3.org/2000/svg" viewBox="0 0 120 120" >
<rect width="120" height="120" rx="60" fill="#00a3cc" />
<path fill="#FFFFFF" opacity="1.000000" stroke="none"
	d="
M77.324158,26.289581
	C83.119545,24.531885 88.892944,22.095303 93.579216,27.055990
	C98.212936,31.961058 96.202095,37.917824 93.831001,43.018715
	C83.560822,65.112762 67.030342,81.229874 45.216660,91.809898
	C40.030464,94.325294 33.809135,96.432236 28.830244,91.556808
	C23.650286,86.484489 26.022055,80.305504 28.473543,74.809410
	C30.344971,70.613777 31.124489,66.559967 31.019567,61.939503
	C30.594719,43.230312 45.382599,28.528271 64.125656,29.110794
	C68.790611,29.255777 72.964691,28.742836 77.324158,26.289581
M90.091843,32.741627
	C87.397545,28.933739 83.837997,28.870674 78.749512,32.517849
	C81.894455,35.032150 85.043884,37.550041 88.815987,40.565746
	C89.331680,37.882420 89.744537,35.734200 90.091843,32.741627
M41.513092,85.278374
	C39.103031,82.512428 36.692970,79.746483 34.282909,76.980545
	C33.895638,77.016968 33.508366,77.053391 33.121094,77.089813
	C33.121094,80.601707 33.121094,84.113602 33.121094,87.625496
	C36.041676,87.066078 38.962257,86.506653 41.513092,85.278374
z"/>
<path fill="#FFFFFF" opacity="1.000000" stroke="none"
	d="
M88.152397,82.128464
	C79.644463,91.524170 69.494690,95.073975 55.949856,93.107170
	C72.232063,82.685234 84.641174,70.245934 94.843330,54.437984
	C96.988663,65.293709 94.413330,73.983742 88.152397,82.128464
z"/>
</svg>