<svg version="1.1" xmlns="http://www.w3.org/2000/svg" viewBox="0 0 120 120" >
<rect width="120" height="120" rx="60" fill="#e6195d" />
<path fill="#FFFFFF" opacity="1.000000" stroke="none"
	d="
M58.075459,90.495132
	C59.248848,84.640129 60.468620,79.198128 61.891510,72.849907
	C56.327984,73.363419 50.674095,73.761581 45.070702,74.528610
	C44.174751,74.651253 43.303837,76.329559 42.764629,77.453392
	C40.104584,82.997498 37.644268,88.638756 34.914272,94.147003
	C34.251125,95.485023 32.834423,96.449577 31.764225,97.585861
	C30.608465,96.277649 28.557196,95.023781 28.473871,93.650505
	C28.268103,90.259315 28.583683,86.719017 29.402248,83.415192
	C30.273119,79.900269 31.963865,76.588486 33.288292,73.209267
	C31.984507,71.187866 30.724695,69.234650 28.552872,65.867447
	C37.587700,68.187309 38.461926,61.914444 40.964123,57.345619
	C46.393452,47.432064 51.872414,37.543148 57.541290,27.766039
	C58.401344,26.282705 60.388062,25.452625 61.853645,24.320385
	C62.830368,26.142857 64.825745,28.112106 64.588364,29.759642
	C63.936905,34.280891 62.928886,38.939716 61.002014,43.046791
	C57.558380,50.386795 53.336758,57.361797 48.988121,65.316727
	C55.359760,64.362160 61.177418,63.681549 66.885498,62.480232
	C68.079681,62.228905 69.026489,60.146980 69.821106,58.756512
	C75.841873,48.221004 81.703331,37.592804 87.861679,27.139143
	C88.905891,25.366619 91.137260,24.293465 92.820160,22.897198
	C93.804535,25.374388 95.858910,28.001949 95.536598,30.295506
	C94.974068,34.298275 93.325531,38.288380 91.457115,41.938240
	C87.682251,49.312252 83.455093,56.454727 79.632362,63.302402
	C81.114494,65.887680 82.352516,68.047134 83.547935,70.132301
	C82.535179,70.854187 82.225586,71.245094 82.020370,71.196373
	C76.065315,69.782715 73.555099,73.081139 71.701950,78.106110
	C70.041489,82.608604 67.763313,86.902725 65.510948,91.158180
	C64.577126,92.922478 63.001434,94.347038 61.717640,95.926094
	C60.519039,94.253441 59.320438,92.580795 58.075459,90.495132
z"/>
</svg>