<svg version="1.1" xmlns="http://www.w3.org/2000/svg" viewBox="0 0 990 990">
<rect width="990" height="990" rx="495" fill="#75328A" />
<path fill="#FFFFFF" opacity="1.000000" stroke="none"
	d="
M470.947327,400.200989
	C470.995758,476.673706 471.063416,553.146423 471.087097,629.619141
	C471.110352,704.759888 471.088654,779.900696 471.087067,855.041443
	C471.086487,883.411255 471.087006,911.781067 471.087006,941.057373
	C469.939362,937.389648 468.978607,934.476379 468.114624,931.534668
	C455.128571,887.320984 442.118011,843.114380 429.187622,798.884399
	C408.766663,729.032043 388.373901,659.171448 368.027588,589.297363
	C360.882538,564.759644 353.984924,540.149841 346.840179,515.612061
	C335.717529,477.412689 324.480255,439.246735 313.673065,400.637390
	C366.352142,400.205750 418.649750,400.203369 470.947327,400.200989
z"/>
<path fill="#FFFFFF" opacity="1.000000" stroke="none"
	d="
M360.753967,250.762390
	C397.063385,185.453018 433.183350,120.458244 469.824249,54.526054
	C469.824249,148.095383 469.824249,240.686111 469.824249,333.560730
	C418.280548,333.560730 366.773193,333.560730 314.352570,333.560730
	C329.956482,305.709320 345.260498,278.393158 360.753967,250.762390
z"/>
<path fill="#FFFFFF" opacity="1.000000" stroke="none"
	d="
M658.022705,401.999847
	C652.244446,418.750916 646.423889,435.487518 640.695496,452.255615
	C621.327454,508.950256 601.979919,565.651917 582.648376,622.359009
	C569.100159,662.101196 555.595154,701.858154 542.054382,741.602783
	C541.091125,744.430054 539.991211,747.210693 538.607178,750.139648
	C538.165771,748.779114 537.990173,747.291992 537.989990,745.804810
	C537.978271,632.051941 537.979370,518.299072 537.992676,404.546173
	C537.992859,403.054443 538.162415,401.562744 538.252930,400.071014
	C538.252991,400.071014 538.638123,400.084106 539.281372,400.101318
	C569.160828,400.131897 598.397095,400.166779 627.633362,400.146484
	C637.426514,400.139679 647.219543,399.992157 657.012634,399.908936
	C657.012634,399.908936 657.418945,400.006439 657.696777,400.343445
	C657.990662,401.120270 658.006714,401.560059 658.022705,401.999847
z"/>
<path fill="#FFFFFF" opacity="1.000000" stroke="none"
	d="
M611.999878,333.843109
	C587.214111,333.843109 562.928345,333.843109 538.286987,333.843109
	C538.286987,286.433960 538.286987,239.385132 538.286987,191.671417
	C611.146667,238.784744 683.796509,285.762360 756.446289,332.739960
	C756.395020,333.107697 756.343689,333.475403 756.292419,333.843109
	C708.361572,333.843109 660.430786,333.843109 611.999878,333.843109
z"/>
</svg>
