<svg version="1.1" id="Layer_1" xmlns="http://www.w3.org/2000/svg" xmlns:xlink="http://www.w3.org/1999/xlink" x="0px" y="0px"
	 width="100%" viewBox="0 0 500 500" enable-background="new 0 0 500 500" xml:space="preserve">
<path fill="#2F3F4C" opacity="1.000000" stroke="none"
	d="
M146.000000,501.000000
	C97.682999,501.000000 49.365990,501.000000 1.024493,501.000000
	C1.024493,334.405975 1.024493,167.811935 1.024493,1.108953
	C167.666626,1.108953 334.333313,1.108953 501.000000,1.110979
	C501.000000,49.096771 501.000000,97.080536 500.531921,145.509415
	C491.413513,146.317108 482.741119,146.403397 474.117035,147.093521
	C447.136475,149.252625 421.271362,155.566544 397.144165,168.245804
	C393.957245,169.920593 392.776703,171.748032 392.945099,175.542999
	C394.072815,200.952393 387.647064,224.453278 373.279266,245.424927
	C366.932434,254.688995 358.610779,261.797150 345.961731,260.115814
	C344.483551,259.919312 342.963074,260.066498 341.467194,259.973694
	C304.231628,257.665070 273.689911,224.055450 276.873962,188.500397
	C278.906342,165.805817 294.853180,144.468872 316.206879,137.859741
	C329.643738,133.700943 343.552765,136.991791 351.077301,146.110046
	C359.427460,156.228882 361.030273,171.534363 354.613556,183.194870
	C348.862915,193.645020 339.371429,198.541275 327.925720,200.378922
	C324.271667,200.965591 321.694916,201.200150 319.810181,196.743179
	C317.431824,191.118927 310.418457,189.683380 305.319489,192.824036
	C299.987122,196.108444 298.560394,202.930222 302.141266,208.020416
	C305.598328,212.934631 312.978119,214.570358 316.973145,210.210831
	C320.448486,206.418411 324.288757,206.405426 328.507904,206.036850
	C353.588470,203.845810 369.998260,179.443253 362.545135,155.464325
	C356.125824,134.811447 335.076691,125.276184 312.753723,132.908829
	C288.977997,141.038193 271.739105,165.278519 271.055847,191.541931
	C270.214386,223.886429 293.883179,254.975449 325.774292,262.963715
	C333.056885,264.787933 340.603363,265.558594 348.365997,266.871216
	C344.582672,270.098450 340.398895,272.765320 337.400604,276.407990
	C330.637970,284.623993 322.768250,284.443207 313.315216,282.131134
	C273.181976,272.315155 243.602234,237.699921 240.787170,196.687576
	C239.851654,183.057922 241.487320,169.820770 246.084381,156.482819
	C196.448929,143.639053 149.157684,125.435043 103.441422,102.903030
	C126.281677,148.746964 144.160095,196.052002 157.086456,245.283310
	C159.471191,244.647705 161.083359,244.256882 162.672760,243.788742
	C216.553009,227.919144 271.285522,260.622040 283.369232,315.606995
	C285.076447,323.375427 284.910156,329.595428 278.391327,335.183411
	C274.277435,338.709869 271.167358,343.407379 266.895966,348.412872
	C266.573547,344.237640 266.340881,341.425110 266.141357,338.610199
	C263.851837,306.313080 237.619659,277.052032 205.806183,271.314911
	C173.966736,265.573151 141.172379,285.088623 132.717880,314.808777
	C127.200211,334.205109 134.699890,352.524841 151.237595,360.047607
	C177.401596,371.949158 205.005264,354.670593 206.873322,325.135071
	C207.068863,322.043427 207.550400,319.665558 210.108521,317.338989
	C214.721756,313.143372 213.990448,305.775085 209.188644,301.930145
	C204.500473,298.176208 197.670441,298.997131 194.082443,303.745850
	C190.323029,308.721436 191.202789,316.437378 196.878601,318.830688
	C201.973404,320.978943 201.379181,324.265656 200.879303,327.976715
	C200.526657,330.594696 199.800903,333.202118 198.925568,335.703644
	C192.855286,353.051025 175.561447,361.773682 157.985748,356.432098
	C141.302505,351.361755 133.230774,335.573700 138.008316,317.356812
	C145.511230,288.748047 178.586380,270.037018 208.149414,277.677094
	C239.032516,285.658325 260.278503,313.637390 261.134430,346.011688
	C261.437592,357.478210 255.943420,365.517883 247.917892,371.329559
	C226.606674,386.761993 202.344803,393.603302 175.983459,392.270325
	C172.425049,392.090393 170.659256,393.167786 169.032516,396.230408
	C156.731659,419.389069 150.425430,444.244263 147.973022,470.164978
	C147.003372,480.413818 146.639633,490.719940 146.000000,501.000000
z"/>
<path fill="#F1D55F" opacity="1.000000" stroke="none"
	d="
M146.428467,501.000000
	C146.639633,490.719940 147.003372,480.413818 147.973022,470.164978
	C150.425430,444.244263 156.731659,419.389069 169.032516,396.230408
	C170.659256,393.167786 172.425049,392.090393 175.983459,392.270325
	C202.344803,393.603302 226.606674,386.761993 247.917892,371.329559
	C255.943420,365.517883 261.437592,357.478210 261.134430,346.011688
	C260.278503,313.637390 239.032516,285.658325 208.149414,277.677094
	C178.586380,270.037018 145.511230,288.748047 138.008316,317.356812
	C133.230774,335.573700 141.302505,351.361755 157.985748,356.432098
	C175.561447,361.773682 192.855286,353.051025 198.925568,335.703644
	C199.800903,333.202118 200.526657,330.594696 200.879303,327.976715
	C201.379181,324.265656 201.973404,320.978943 196.878601,318.830688
	C191.202789,316.437378 190.323029,308.721436 194.082443,303.745850
	C197.670441,298.997131 204.500473,298.176208 209.188644,301.930145
	C213.990448,305.775085 214.721756,313.143372 210.108521,317.338989
	C207.550400,319.665558 207.068863,322.043427 206.873322,325.135071
	C205.005264,354.670593 177.401596,371.949158 151.237595,360.047607
	C134.699890,352.524841 127.200211,334.205109 132.717880,314.808777
	C141.172379,285.088623 173.966736,265.573151 205.806183,271.314911
	C237.619659,277.052032 263.851837,306.313080 266.141357,338.610199
	C266.340881,341.425110 266.573547,344.237640 266.895966,348.412872
	C271.167358,343.407379 274.277435,338.709869 278.391327,335.183411
	C284.910156,329.595428 285.076447,323.375427 283.369232,315.606995
	C271.285522,260.622040 216.553009,227.919144 162.672760,243.788742
	C161.083359,244.256882 159.471191,244.647705 157.086456,245.283310
	C144.160095,196.052002 126.281677,148.746964 103.441422,102.903030
	C149.157684,125.435043 196.448929,143.639053 246.084381,156.482819
	C241.487320,169.820770 239.851654,183.057922 240.787170,196.687576
	C243.602234,237.699921 273.181976,272.315155 313.315216,282.131134
	C322.768250,284.443207 330.637970,284.623993 337.400604,276.407990
	C340.398895,272.765320 344.582672,270.098450 348.365997,266.871216
	C340.603363,265.558594 333.056885,264.787933 325.774292,262.963715
	C293.883179,254.975449 270.214386,223.886429 271.055847,191.541931
	C271.739105,165.278519 288.977997,141.038193 312.753723,132.908829
	C335.076691,125.276184 356.125824,134.811447 362.545135,155.464325
	C369.998260,179.443253 353.588470,203.845810 328.507904,206.036850
	C324.288757,206.405426 320.448486,206.418411 316.973145,210.210831
	C312.978119,214.570358 305.598328,212.934631 302.141266,208.020416
	C298.560394,202.930222 299.987122,196.108444 305.319489,192.824036
	C310.418457,189.683380 317.431824,191.118927 319.810181,196.743179
	C321.694916,201.200150 324.271667,200.965591 327.925720,200.378922
	C339.371429,198.541275 348.862915,193.645020 354.613556,183.194870
	C361.030273,171.534363 359.427460,156.228882 351.077301,146.110046
	C343.552765,136.991791 329.643738,133.700943 316.206879,137.859741
	C294.853180,144.468872 278.906342,165.805817 276.873962,188.500397
	C273.689911,224.055450 304.231628,257.665070 341.467194,259.973694
	C342.963074,260.066498 344.483551,259.919312 345.961731,260.115814
	C358.610779,261.797150 366.932434,254.688995 373.279266,245.424927
	C387.647064,224.453278 394.072815,200.952393 392.945099,175.542999
	C392.776703,171.748032 393.957245,169.920593 397.144165,168.245804
	C421.271362,155.566544 447.136475,149.252625 474.117035,147.093521
	C482.741119,146.403397 491.413513,146.317108 500.531921,145.977264
	C501.000000,147.714355 501.000000,149.428711 500.565002,151.380341
	C489.999908,152.099487 479.821411,152.114029 469.749512,153.157578
	C446.618774,155.554108 424.300629,161.109421 403.322449,171.526810
	C400.022552,173.165482 398.966797,175.012146 398.789154,178.681473
	C398.364624,187.450394 398.111633,196.399033 396.109344,204.878418
	C393.370209,216.478333 389.073669,227.710526 385.542084,238.794739
	C385.828552,238.637848 386.844147,238.185822 387.749084,237.570938
	C416.142273,218.277954 445.977112,201.570282 477.468323,187.896133
	C485.151245,184.560043 493.147705,181.946030 501.000000,179.000000
	C501.000000,180.714355 501.000000,182.428711 500.623291,184.489273
	C496.060303,186.439850 491.808563,187.892822 487.697235,189.670578
	C366.651245,242.011429 274.574982,326.150238 211.902512,442.129150
	C201.668228,461.068237 193.905212,481.342712 185.000000,501.000000
	C183.285645,501.000000 181.571289,501.000000 179.394196,500.619995
	C189.098419,478.222046 198.536469,455.827179 209.665146,434.306580
	C218.423462,417.369781 229.266922,401.511200 239.426498,385.032715
	C239.267822,384.686096 238.866852,384.480469 238.126617,384.391113
	C219.035446,393.954742 199.247574,398.777039 178.164795,398.278503
	C176.430649,398.237488 173.862289,399.915527 173.008072,401.506866
	C165.897034,414.754395 161.265686,428.921570 157.908356,443.560974
	C153.570023,462.477966 152.496704,481.702698 152.000000,501.000000
	C150.285645,501.000000 148.571289,501.000000 146.428467,501.000000
z"/>
<path fill="#2F3F4C" opacity="1.000000" stroke="none"
	d="
M501.000000,313.000000
	C501.000000,375.593475 501.000000,438.186981 501.000000,501.000000
	C438.979279,501.000000 376.958282,501.000000 314.391174,500.640625
	C314.652130,498.642792 315.398560,496.971069 316.275085,495.370636
	C359.658844,416.156250 421.213593,355.343658 501.000000,313.000000
z"/>
<path fill="#31414C" opacity="1.000000" stroke="none"
	d="
M271.000000,501.000000
	C253.312439,501.000000 235.624878,501.000000 217.385529,500.626221
	C217.098877,499.468079 217.310074,498.660522 217.636765,497.902771
	C266.369202,384.862762 344.768250,298.650665 452.408295,239.140778
	C468.079956,230.476547 484.777283,223.667496 501.000000,216.000000
	C501.000000,234.020889 501.000000,252.041794 500.635010,270.515289
	C499.053314,271.502686 497.816772,271.996735 496.622711,272.578094
	C428.565643,305.713501 371.468781,352.346069 325.122162,412.135986
	C303.749207,439.708496 285.520813,469.234955 271.000000,501.000000
M486.533783,250.726166
	C488.791870,251.939636 491.022369,253.991028 493.317932,254.066650
	C494.802734,254.115555 497.303101,251.458588 497.661469,249.675217
	C498.020355,247.889175 496.796692,245.035736 495.309875,243.853012
	C493.997772,242.809311 490.616913,242.548203 489.493164,243.510559
	C487.794037,244.965637 487.261810,247.783325 486.533783,250.726166
M405.755768,295.862732
	C404.611572,295.838470 402.985016,295.321991 402.413513,295.882080
	C400.685760,297.575348 398.190277,299.704956 398.220642,301.629364
	C398.251038,303.553070 400.711761,306.596741 402.578583,307.007660
	C404.448608,307.419373 407.677673,305.737183 408.926575,303.985596
	C411.089264,300.952362 409.553558,298.022644 405.755768,295.862732
M442.316040,274.261047
	C440.219055,273.675201 437.916138,272.238708 436.069183,272.685791
	C432.541870,273.539551 431.063171,276.585083 432.202271,280.107178
	C433.369354,283.715729 436.360962,284.724823 439.833679,283.802856
	C443.345612,282.870422 444.441559,279.266510 442.316040,274.261047
M461.215607,266.023041
	C460.286011,262.836212 457.954498,261.120361 454.910736,261.919037
	C452.993561,262.422058 450.732544,264.188293 450.025421,265.949768
	C449.412292,267.477081 450.159180,270.518921 451.413422,271.575470
	C452.889832,272.819214 456.160431,273.661224 457.564331,272.832733
	C459.386780,271.757233 460.135956,268.863068 461.215607,266.023041
M391.591522,309.800720
	C389.454681,309.428833 387.042145,308.245270 385.239624,308.857544
	C381.713684,310.055267 380.843842,313.369476 382.248810,316.634491
	C383.710449,320.031219 386.698486,320.984619 390.096100,319.473724
	C393.648682,317.893860 394.281677,314.639771 391.591522,309.800720
M415.886658,293.205719
	C418.603607,296.063507 421.950653,296.705627 424.476257,293.737518
	C425.834381,292.141479 426.525909,288.276276 425.517914,286.811127
	C424.329529,285.083801 420.700348,283.699890 418.622192,284.202881
	C414.489777,285.203033 413.995667,288.804962 415.886658,293.205719
M252.740768,471.145782
	C252.442825,476.328888 254.445099,479.067291 258.453949,478.959351
	C262.007141,478.863708 264.885529,475.796112 263.937256,472.298492
	C263.415894,470.375549 261.367401,467.526337 259.948517,467.491455
	C257.640564,467.434631 255.284256,469.343292 252.740768,471.145782
M344.005859,361.810272
	C347.521088,360.408569 349.010468,357.585510 347.659271,354.289948
	C346.938995,352.533234 344.294830,350.321381 342.713440,350.464417
	C340.550293,350.660065 337.768036,352.446869 336.685364,354.362335
	C334.553589,358.133820 337.694183,361.503479 344.005859,361.810272
M274.540100,433.176270
	C271.869873,438.037262 272.995972,442.469818 277.400452,442.757172
	C279.561829,442.898132 282.705048,441.513977 283.834808,439.791138
	C284.789948,438.334503 284.196869,434.890350 283.018372,433.224945
	C281.037994,430.426331 277.903687,430.717987 274.540100,433.176270
M293.375519,424.979218
	C294.131195,422.503326 295.590149,419.960510 295.363464,417.578094
	C295.239075,416.270477 292.266510,414.307434 290.589783,414.319031
	C288.684723,414.332214 286.123413,415.797363 285.098022,417.421143
	C284.213135,418.822449 284.314636,422.362854 285.342194,423.127777
	C287.255035,424.551697 290.158752,424.644470 293.375519,424.979218
M296.254974,405.014221
	C297.208099,406.119232 297.960876,407.569702 299.153687,408.261505
	C302.180817,410.017303 305.522980,409.422607 306.830383,406.401337
	C307.717743,404.350708 307.307617,400.780792 305.994537,398.959839
	C304.016205,396.216278 300.525848,396.507263 298.161865,398.969788
	C296.949402,400.232941 296.739380,402.458313 296.254974,405.014221
M262.201721,454.607635
	C263.422394,459.568451 266.557098,462.304840 269.790649,460.507690
	C271.726471,459.431854 273.879364,456.584381 273.788177,454.633484
	C273.697601,452.694763 271.251404,449.917267 269.246307,449.226898
	C265.760284,448.026672 263.343079,450.347168 262.201721,454.607635
M320.825256,387.358307
	C319.597168,382.131989 316.296204,379.431732 312.870758,381.510864
	C311.001190,382.645599 309.168488,385.548706 309.214996,387.611542
	C309.254791,389.375519 311.697540,391.969727 313.610931,392.615082
	C317.133667,393.803192 319.474976,391.450287 320.825256,387.358307
M245.395279,486.958649
	C242.620132,489.523956 242.171326,492.805573 244.764862,495.189789
	C246.316895,496.616516 249.975113,497.402374 251.698395,496.528198
	C253.420425,495.654633 254.794388,492.334412 254.746704,490.120636
	C254.662521,486.213226 251.041565,484.970795 245.395279,486.958649
M323.525848,375.013550
	C328.201263,378.514252 333.337036,377.407654 333.746155,372.511841
	C333.917206,370.464722 332.645813,367.517578 331.035553,366.340973
	C329.679596,365.350159 326.471985,365.626190 324.816315,366.594086
	C321.958099,368.265015 321.336761,371.253571 323.525848,375.013550
M361.454498,337.898834
	C356.824890,334.414581 351.669067,335.440369 351.169312,340.251678
	C350.956909,342.296753 352.145538,345.481110 353.731323,346.442657
	C355.350800,347.424652 358.658997,347.026062 360.470337,345.953033
	C363.087585,344.402679 363.591919,341.452209 361.454498,337.898834
M478.777679,254.628326
	C474.402191,250.534348 468.779358,251.196411 468.078949,256.090088
	C467.799774,258.040741 468.597168,261.129303 470.001678,262.081451
	C471.659668,263.205444 475.405579,263.566711 476.616241,262.465912
	C478.247955,260.982239 478.323883,257.787567 478.777679,254.628326
M377.432617,329.692505
	C378.707489,325.833771 377.306519,322.704681 373.546906,322.162415
	C371.371277,321.848602 367.673859,323.424133 366.803040,325.199768
	C365.959076,326.920563 367.095032,330.875000 368.717712,332.263824
	C371.554688,334.691956 374.898743,333.733887 377.432617,329.692505
z"/>
<path fill="#32414C" opacity="1.000000" stroke="none"
	d="
M185.468277,501.000000
	C193.905212,481.342712 201.668228,461.068237 211.902512,442.129150
	C274.574982,326.150238 366.651245,242.011429 487.697235,189.670578
	C491.808563,187.892822 496.060303,186.439850 500.623291,184.917740
	C501.000000,191.021149 501.000000,197.042297 500.620972,203.482086
	C499.453491,204.158997 498.643677,204.365891 497.879517,204.682800
	C428.637329,233.399353 368.118439,274.931732 316.037537,328.768738
	C267.538147,378.903442 230.285767,436.394928 204.000000,501.000000
	C197.978851,501.000000 191.957703,501.000000 185.468277,501.000000
z"/>
<path fill="#32414C" opacity="1.000000" stroke="none"
	d="
M501.000000,284.000000
	C501.000000,291.354248 501.000000,298.708496 500.636017,306.515137
	C499.219391,307.461182 498.143097,307.910431 497.117432,308.454926
	C439.400177,339.093689 390.554382,380.271759 350.600433,431.969391
	C333.888519,453.593445 319.079102,476.439667 307.000000,501.000000
	C299.645752,501.000000 292.291504,501.000000 284.439026,500.634308
	C284.040283,499.952454 284.099030,499.615997 284.245087,499.323029
	C330.855896,405.826233 400.503937,335.004272 493.314850,287.009155
	C495.745331,285.752289 498.432526,284.991943 501.000000,284.000000
z"/>
<path fill="#F0D45F" opacity="1.000000" stroke="none"
	d="
M204.463181,501.000000
	C230.285767,436.394928 267.538147,378.903442 316.037537,328.768738
	C368.118439,274.931732 428.637329,233.399353 497.879517,204.682800
	C498.643677,204.365891 499.453491,204.158997 500.620972,203.950378
	C501.000000,207.692902 501.000000,211.385818 501.000000,215.539352
	C484.777283,223.667496 468.079956,230.476547 452.408295,239.140778
	C344.768250,298.650665 266.369202,384.862762 217.636765,497.902771
	C217.310074,498.660522 217.098877,499.468079 216.916870,500.626221
	C212.975449,501.000000 208.950912,501.000000 204.463181,501.000000
z"/>
<path fill="#31404C" opacity="1.000000" stroke="none"
	d="
M152.468658,501.000000
	C152.496704,481.702698 153.570023,462.477966 157.908356,443.560974
	C161.265686,428.921570 165.897034,414.754395 173.008072,401.506866
	C173.862289,399.915527 176.430649,398.237488 178.164795,398.278503
	C199.247574,398.777039 219.035446,393.954742 238.302002,384.619141
	C238.939163,384.878510 239.061661,385.026093 239.184174,385.173676
	C229.266922,401.511200 218.423462,417.369781 209.665146,434.306580
	C198.536469,455.827179 189.098419,478.222046 178.965729,500.619995
	C170.312439,501.000000 161.624863,501.000000 152.468658,501.000000
z"/>
<path fill="#31404C" opacity="1.000000" stroke="none"
	d="
M501.000000,178.531342
	C493.147705,181.946030 485.151245,184.560043 477.468323,187.896133
	C445.977112,201.570282 416.142273,218.277954 387.749084,237.570938
	C386.844147,238.185822 385.828552,238.637848 385.542084,238.794739
	C389.073669,227.710526 393.370209,216.478333 396.109344,204.878418
	C398.111633,196.399033 398.364624,187.450394 398.789154,178.681473
	C398.966797,175.012146 400.022552,173.165482 403.322449,171.526810
	C424.300629,161.109421 446.618774,155.554108 469.749512,153.157578
	C479.821411,152.114029 489.999908,152.099487 500.565002,151.808807
	C501.000000,160.687561 501.000000,169.375137 501.000000,178.531342
z"/>
<path fill="#F0D45F" opacity="1.000000" stroke="none"
	d="
M501.000000,283.536835
	C498.432526,284.991943 495.745331,285.752289 493.314850,287.009155
	C400.503937,335.004272 330.855896,405.826233 284.245087,499.323029
	C284.099030,499.615997 284.040283,499.952454 283.970398,500.634308
	C279.975464,501.000000 275.950897,501.000000 271.463196,501.000000
	C285.520813,469.234955 303.749207,439.708496 325.122162,412.135986
	C371.468781,352.346069 428.565643,305.713501 496.622711,272.578094
	C497.816772,271.996735 499.053314,271.502686 500.635010,270.983948
	C501.000000,275.024536 501.000000,279.049103 501.000000,283.536835
z"/>
<path fill="#ECD15F" opacity="1.000000" stroke="none"
	d="
M307.437500,501.000000
	C319.079102,476.439667 333.888519,453.593445 350.600433,431.969391
	C390.554382,380.271759 439.400177,339.093689 497.117432,308.454926
	C498.143097,307.910431 499.219391,307.461182 500.636017,306.983765
	C501.000000,308.714355 501.000000,310.428711 501.000000,312.571533
	C421.213593,355.343658 359.658844,416.156250 316.275085,495.370636
	C315.398560,496.971069 314.652130,498.642792 313.922516,500.640625
	C311.958344,501.000000 309.916656,501.000000 307.437500,501.000000
z"/>
<path fill="#31404C" opacity="1.000000" stroke="none"
	d="
M238.641266,384.502869
	C238.866852,384.480469 239.267822,384.686096 239.426483,385.032715
	C239.061661,385.026093 238.939163,384.878510 238.641266,384.502869
z"/>
<path fill="#EDD25F" opacity="1.000000" stroke="none"
	d="
M486.383759,250.374084
	C487.261810,247.783325 487.794037,244.965637 489.493164,243.510559
	C490.616913,242.548203 493.997772,242.809311 495.309875,243.853012
	C496.796692,245.035736 498.020355,247.889175 497.661469,249.675217
	C497.303101,251.458588 494.802734,254.115555 493.317932,254.066650
	C491.022369,253.991028 488.791870,251.939636 486.383759,250.374084
z"/>
<path fill="#EDD25F" opacity="1.000000" stroke="none"
	d="
M406.105133,295.968689
	C409.553558,298.022644 411.089264,300.952362 408.926575,303.985596
	C407.677673,305.737183 404.448608,307.419373 402.578583,307.007660
	C400.711761,306.596741 398.251038,303.553070 398.220642,301.629364
	C398.190277,299.704956 400.685760,297.575348 402.413513,295.882080
	C402.985016,295.321991 404.611572,295.838470 406.105133,295.968689
z"/>
<path fill="#EBD05F" opacity="1.000000" stroke="none"
	d="
M442.551208,274.561340
	C444.441559,279.266510 443.345612,282.870422 439.833679,283.802856
	C436.360962,284.724823 433.369354,283.715729 432.202271,280.107178
	C431.063171,276.585083 432.541870,273.539551 436.069183,272.685791
	C437.916138,272.238708 440.219055,273.675201 442.551208,274.561340
z"/>
<path fill="#EFD35F" opacity="1.000000" stroke="none"
	d="
M461.281342,266.387390
	C460.135956,268.863068 459.386780,271.757233 457.564331,272.832733
	C456.160431,273.661224 452.889832,272.819214 451.413422,271.575470
	C450.159180,270.518921 449.412292,267.477081 450.025421,265.949768
	C450.732544,264.188293 452.993561,262.422058 454.910736,261.919037
	C457.954498,261.120361 460.286011,262.836212 461.281342,266.387390
z"/>
<path fill="#EBD05E" opacity="1.000000" stroke="none"
	d="
M391.856323,310.066742
	C394.281677,314.639771 393.648682,317.893860 390.096100,319.473724
	C386.698486,320.984619 383.710449,320.031219 382.248810,316.634491
	C380.843842,313.369476 381.713684,310.055267 385.239624,308.857544
	C387.042145,308.245270 389.454681,309.428833 391.856323,310.066742
z"/>
<path fill="#EBD05E" opacity="1.000000" stroke="none"
	d="
M415.648010,292.892944
	C413.995667,288.804962 414.489777,285.203033 418.622192,284.202881
	C420.700348,283.699890 424.329529,285.083801 425.517914,286.811127
	C426.525909,288.276276 425.834381,292.141479 424.476257,293.737518
	C421.950653,296.705627 418.603607,296.063507 415.648010,292.892944
z"/>
<path fill="#EBD05E" opacity="1.000000" stroke="none"
	d="
M252.844559,470.784119
	C255.284256,469.343292 257.640564,467.434631 259.948517,467.491455
	C261.367401,467.526337 263.415894,470.375549 263.937256,472.298492
	C264.885529,475.796112 262.007141,478.863708 258.453949,478.959351
	C254.445099,479.067291 252.442825,476.328888 252.844559,470.784119
z"/>
<path fill="#EBD05F" opacity="1.000000" stroke="none"
	d="
M343.613770,361.890594
	C337.694183,361.503479 334.553589,358.133820 336.685364,354.362335
	C337.768036,352.446869 340.550293,350.660065 342.713440,350.464417
	C344.294830,350.321381 346.938995,352.533234 347.659271,354.289948
	C349.010468,357.585510 347.521088,360.408569 343.613770,361.890594
z"/>
<path fill="#EBD05F" opacity="1.000000" stroke="none"
	d="
M274.808655,432.896484
	C277.903687,430.717987 281.037994,430.426331 283.018372,433.224945
	C284.196869,434.890350 284.789948,438.334503 283.834808,439.791138
	C282.705048,441.513977 279.561829,442.898132 277.400452,442.757172
	C272.995972,442.469818 271.869873,438.037262 274.808655,432.896484
z"/>
<path fill="#EBD05F" opacity="1.000000" stroke="none"
	d="
M293.012756,425.135254
	C290.158752,424.644470 287.255035,424.551697 285.342194,423.127777
	C284.314636,422.362854 284.213135,418.822449 285.098022,417.421143
	C286.123413,415.797363 288.684723,414.332214 290.589783,414.319031
	C292.266510,414.307434 295.239075,416.270477 295.363464,417.578094
	C295.590149,419.960510 294.131195,422.503326 293.012756,425.135254
z"/>
<path fill="#EACF5E" opacity="1.000000" stroke="none"
	d="
M296.165649,404.631531
	C296.739380,402.458313 296.949402,400.232941 298.161865,398.969788
	C300.525848,396.507263 304.016205,396.216278 305.994537,398.959839
	C307.307617,400.780792 307.717743,404.350708 306.830383,406.401337
	C305.522980,409.422607 302.180817,410.017303 299.153687,408.261505
	C297.960876,407.569702 297.208099,406.119232 296.165649,404.631531
z"/>
<path fill="#EBD05F" opacity="1.000000" stroke="none"
	d="
M262.265564,454.234528
	C263.343079,450.347168 265.760284,448.026672 269.246307,449.226898
	C271.251404,449.917267 273.697601,452.694763 273.788177,454.633484
	C273.879364,456.584381 271.726471,459.431854 269.790649,460.507690
	C266.557098,462.304840 263.422394,459.568451 262.265564,454.234528
z"/>
<path fill="#EBD05F" opacity="1.000000" stroke="none"
	d="
M320.748474,387.727753
	C319.474976,391.450287 317.133667,393.803192 313.610931,392.615082
	C311.697540,391.969727 309.254791,389.375519 309.214996,387.611542
	C309.168488,385.548706 311.001190,382.645599 312.870758,381.510864
	C316.296204,379.431732 319.597168,382.131989 320.748474,387.727753
z"/>
<path fill="#EFD35F" opacity="1.000000" stroke="none"
	d="
M245.686462,486.737610
	C251.041565,484.970795 254.662521,486.213226 254.746704,490.120636
	C254.794388,492.334412 253.420425,495.654633 251.698395,496.528198
	C249.975113,497.402374 246.316895,496.616516 244.764862,495.189789
	C242.171326,492.805573 242.620132,489.523956 245.686462,486.737610
z"/>
<path fill="#EED25F" opacity="1.000000" stroke="none"
	d="
M323.303467,374.693604
	C321.336761,371.253571 321.958099,368.265015 324.816315,366.594086
	C326.471985,365.626190 329.679596,365.350159 331.035553,366.340973
	C332.645813,367.517578 333.917206,370.464722 333.746155,372.511841
	C333.337036,377.407654 328.201263,378.514252 323.303467,374.693604
z"/>
<path fill="#EFD35F" opacity="1.000000" stroke="none"
	d="
M361.667480,338.229004
	C363.591919,341.452209 363.087585,344.402679 360.470337,345.953033
	C358.658997,347.026062 355.350800,347.424652 353.731323,346.442657
	C352.145538,345.481110 350.956909,342.296753 351.169312,340.251678
	C351.669067,335.440369 356.824890,334.414581 361.667480,338.229004
z"/>
<path fill="#ECD15F" opacity="1.000000" stroke="none"
	d="
M478.922577,254.977753
	C478.323883,257.787567 478.247955,260.982239 476.616241,262.465912
	C475.405579,263.566711 471.659668,263.205444 470.001678,262.081451
	C468.597168,261.129303 467.799774,258.040741 468.078949,256.090088
	C468.779358,251.196411 474.402191,250.534348 478.922577,254.977753
z"/>
<path fill="#EFD35F" opacity="1.000000" stroke="none"
	d="
M377.263062,330.030487
	C374.898743,333.733887 371.554688,334.691956 368.717712,332.263824
	C367.095032,330.875000 365.959076,326.920563 366.803040,325.199768
	C367.673859,323.424133 371.371277,321.848602 373.546906,322.162415
	C377.306519,322.704681 378.707489,325.833771 377.263062,330.030487
z"/>
</svg>