<svg version="1.1" xmlns="http://www.w3.org/2000/svg" viewBox="0 0 1024 1024" >
<rect width="1024" height="1024" rx="512" fill="#0F5BA7" />
<path fill="#FFFFFF" opacity="1.000000" stroke="none"
	d="
M170.999847,572.000000
	C170.999847,511.856598 170.970459,452.213135 171.108459,392.570038
	C171.113922,390.208710 172.079819,387.252991 173.661316,385.577881
	C236.906357,318.588654 300.274231,251.715363 363.629486,184.830200
	C364.086060,184.348221 364.587219,183.908463 365.550262,182.987259
	C365.550262,333.726227 365.550262,483.970703 365.550262,634.751160
	C364.502319,634.818359 363.085144,634.988281 361.667938,634.988647
	C306.689392,635.002075 251.710831,635.014526 196.732285,634.990051
	C182.421783,634.983704 171.157608,623.832886 171.026917,609.485352
	C170.914642,597.157837 171.001205,584.828491 170.999847,572.000000
z"/>
<path fill="#FFFFFF" opacity="1.000000" stroke="none"
	d="
M659.999939,749.000000
	C659.999939,629.556030 659.999939,510.612091 659.999939,390.999878
	C661.813965,390.999878 663.404907,390.999908 664.995911,390.999908
	C719.478271,390.999908 773.960815,391.069183 828.442993,390.958130
	C844.994629,390.924408 854.890625,402.966034 854.922791,417.124084
	C855.087280,489.600250 855.021179,562.077087 854.887329,634.553406
	C854.883606,636.563538 853.672180,639.008362 852.246521,640.514954
	C816.068542,678.747437 779.739746,716.837219 743.538452,755.047791
	C717.880615,782.129700 692.371643,809.352600 666.792664,836.509216
	C664.853271,838.568115 662.884644,840.599487 659.999939,843.615784
	C659.999939,811.532227 659.999939,780.516113 659.999939,749.000000
z"/>
<path fill="#FFFFFF" opacity="1.000000" stroke="none"
	d="
M654.000000,366.000153
	C566.201721,366.000153 478.903412,366.000153 391.228363,366.000153
	C391.144043,364.123962 391.009216,362.519135 391.008911,360.914276
	C390.997986,306.419800 390.995361,251.925339 391.002747,197.430878
	C391.004791,182.359451 401.894196,171.054611 416.900635,171.038071
	C489.393188,170.958191 561.885925,170.971161 634.378235,171.137375
	C636.646240,171.142578 639.367432,172.695221 641.108887,174.340027
	C702.652954,232.467575 764.104614,290.692871 825.570129,348.903534
	C831.254333,354.286804 836.944153,359.664032 843.642151,366.000153
	C779.849854,366.000153 717.174927,366.000153 654.000000,366.000153
z"/>
<path fill="#FFFFFF" opacity="1.000000" stroke="none"
	d="
M357.822540,826.177734
	C299.494141,770.936951 241.424225,715.938660 182.798706,660.414185
	C333.765411,660.414185 484.071381,660.414185 634.792908,660.414185
	C634.857178,661.856262 634.990784,663.458923 634.991089,665.061646
	C635.001953,719.219543 634.776062,773.378967 635.124451,827.534607
	C635.242371,845.869507 620.204041,855.117432 607.780212,855.077332
	C535.959229,854.845581 464.137085,854.990479 392.315674,854.846619
	C389.986420,854.841980 387.159698,853.653381 385.417053,852.075562
	C376.155060,843.689453 367.165131,835.002808 357.822540,826.177734
z"/>
</svg>
