<svg version="1.1" xmlns="http://www.w3.org/2000/svg" viewBox="0 0 170 170" >
<circle cx="85" cy="85" r="85" fill="#163b6e"/>
<path d="M0,85 a1,1 0 0,0 170,0" fill="#4499d5" />
<path fill="#FFFFFF" opacity="1.000000" stroke="none"
	d="
M70.154266,141.993652
	C70.087120,123.974052 70.019974,105.954445 69.964859,87.222244
	C69.940865,86.339828 69.904823,86.169998 69.930740,85.744370
	C69.936058,85.322495 69.879417,85.156418 69.822777,84.990349
	C69.883362,67.312141 69.943947,49.633938 70.274368,31.426903
	C70.812660,30.767851 70.982506,30.557871 71.053757,30.268131
	C80.701660,30.234493 90.349556,30.200853 100.443588,30.422726
	C100.889709,30.678238 100.958260,31.083683 100.887299,31.297619
	C101.158852,32.012730 101.501381,32.513901 101.843903,33.015072
	C101.894020,33.760078 101.944130,34.505081 101.737381,35.651218
	C101.601646,36.373150 101.722778,36.693947 101.843903,37.014748
	C101.894020,37.759834 101.944130,38.504925 101.737381,39.651180
	C101.601646,40.373150 101.722778,40.693947 101.843903,41.014748
	C101.894012,41.759834 101.944130,42.504925 101.737381,43.651180
	C101.601646,44.373150 101.722771,44.693947 101.843903,45.014748
	C101.894012,45.759834 101.944122,46.504925 101.737381,47.651180
	C101.601646,48.373150 101.722771,48.693951 101.843903,49.014748
	C101.894020,49.759834 101.944130,50.504925 101.737381,51.651180
	C101.601646,52.373150 101.722771,52.693951 101.843903,53.014748
	C101.894012,53.759834 101.944130,54.504925 101.737381,55.651180
	C101.601646,56.373150 101.722771,56.693951 101.843903,57.014748
	C101.894020,57.759834 101.944130,58.504925 101.737381,59.651180
	C101.601646,60.373150 101.722771,60.693951 101.843903,61.014748
	C101.894012,61.759834 101.944130,62.504925 101.737381,63.651176
	C101.601646,64.373146 101.722778,64.693947 101.843903,65.014755
	C101.894012,65.759842 101.944122,66.504921 101.737381,67.651169
	C101.601646,68.373146 101.722771,68.693947 101.843903,69.014755
	C101.894020,69.759842 101.944130,70.504921 101.737381,71.651169
	C101.601646,72.373146 101.722771,72.693954 101.843903,73.014755
	C101.894012,73.759842 101.944130,74.504921 101.737381,75.651169
	C101.601639,76.373146 101.722771,76.693954 101.843903,77.014755
	C101.894012,77.759842 101.944122,78.504921 101.737381,79.651169
	C101.601646,80.373146 101.722771,80.693947 101.843903,81.014755
	C101.894012,81.759827 101.944130,82.504890 101.735840,83.652222
	C101.599594,84.390800 101.721748,84.727119 101.843903,85.063431
	C101.843903,85.063431 101.985329,84.933609 101.995514,85.195648
	C102.043404,85.635948 102.081108,85.814201 102.060501,86.246758
	C102.051834,86.667747 102.101486,86.834435 102.151138,87.001122
	C102.090172,105.024117 102.029213,123.047119 101.738373,141.643738
	C101.304565,142.383118 101.132797,142.577316 100.993202,142.799973
	C91.305443,142.841934 81.617691,142.883881 71.347397,142.705261
	C70.589897,142.285507 70.386368,142.121826 70.154266,141.993652
z"/>
<path fill="#EAF2F6" opacity="1.000000" stroke="none"
	d="
M101.936592,32.689785
	C101.501381,32.513901 101.158852,32.012730 101.117943,31.273081
	C101.419556,31.034605 101.882111,31.028786 101.882111,31.028786
	C101.931168,31.474024 101.980225,31.919262 101.936592,32.689785
z"/>
<path fill="#EAF2F6" opacity="1.000000" stroke="none"
	d="
M101.924515,64.757339
	C101.722778,64.693947 101.601646,64.373146 101.662209,64.018707
	C101.897644,64.156685 101.951385,64.328300 101.924515,64.757339
z"/>
<path fill="#EAF2F6" opacity="1.000000" stroke="none"
	d="
M101.924515,84.793823
	C101.721748,84.727119 101.599594,84.390800 101.660675,84.019745
	C101.897644,84.164742 101.951385,84.344475 101.924515,84.793823
z"/>
<path fill="#EAF2F6" opacity="1.000000" stroke="none"
	d="
M101.924515,80.757332
	C101.722771,80.693947 101.601646,80.373146 101.662216,80.018700
	C101.897636,80.156677 101.951378,80.328293 101.924515,80.757332
z"/>
<path fill="#EAF2F6" opacity="1.000000" stroke="none"
	d="
M101.924507,76.757332
	C101.722771,76.693954 101.601639,76.373146 101.662209,76.018700
	C101.897636,76.156677 101.951378,76.328293 101.924507,76.757332
z"/>
<path fill="#EAF2F6" opacity="1.000000" stroke="none"
	d="
M101.924507,72.757332
	C101.722771,72.693954 101.601646,72.373146 101.662209,72.018700
	C101.897636,72.156677 101.951378,72.328293 101.924507,72.757332
z"/>
<path fill="#EAF2F6" opacity="1.000000" stroke="none"
	d="
M101.924515,68.757332
	C101.722771,68.693947 101.601646,68.373146 101.662216,68.018700
	C101.897636,68.156677 101.951378,68.328293 101.924515,68.757332
z"/>
<path fill="#EAF2F6" opacity="1.000000" stroke="none"
	d="
M101.924507,60.757328
	C101.722771,60.693951 101.601646,60.373150 101.662209,60.018711
	C101.897644,60.156689 101.951385,60.328300 101.924507,60.757328
z"/>
<path fill="#EAF2F6" opacity="1.000000" stroke="none"
	d="
M101.924515,56.757328
	C101.722771,56.693951 101.601646,56.373150 101.662216,56.018711
	C101.897644,56.156689 101.951385,56.328300 101.924515,56.757328
z"/>
<path fill="#EAF2F6" opacity="1.000000" stroke="none"
	d="
M101.924515,52.757328
	C101.722771,52.693951 101.601646,52.373150 101.662216,52.018711
	C101.897644,52.156689 101.951385,52.328300 101.924515,52.757328
z"/>
<path fill="#EAF2F6" opacity="1.000000" stroke="none"
	d="
M101.924515,48.757328
	C101.722771,48.693951 101.601646,48.373150 101.662216,48.018711
	C101.897644,48.156689 101.951385,48.328300 101.924515,48.757328
z"/>
<path fill="#EAF2F6" opacity="1.000000" stroke="none"
	d="
M101.924515,44.757328
	C101.722771,44.693947 101.601646,44.373150 101.662216,44.018711
	C101.897644,44.156689 101.951385,44.328300 101.924515,44.757328
z"/>
<path fill="#EAF2F6" opacity="1.000000" stroke="none"
	d="
M101.924515,40.757328
	C101.722778,40.693947 101.601646,40.373150 101.662216,40.018711
	C101.897644,40.156689 101.951385,40.328300 101.924515,40.757328
z"/>
<path fill="#EAF2F6" opacity="1.000000" stroke="none"
	d="
M101.924515,36.757328
	C101.722778,36.693947 101.601646,36.373150 101.662216,36.018711
	C101.897644,36.156689 101.951385,36.328300 101.924515,36.757328
z"/>
<path fill="#C5D1DC" opacity="1.000000" stroke="none"
	d="
M101.897247,30.745831
	C101.882111,31.028786 101.419556,31.034605 101.188904,31.059143
	C100.958260,31.083683 100.889709,30.678238 100.904694,30.473186
	C101.250580,30.333048 101.581482,30.397961 101.897247,30.745831
z"/>
<path fill="#1B4E80" opacity="1.000000" stroke="none"
	d="
M69.663582,85.101578
	C69.879417,85.156418 69.936058,85.322495 69.711838,85.775772
	C69.430977,86.062965 69.007828,86.192207 69.007828,86.192207
	C69.007828,86.192207 69.011047,86.005310 69.015640,85.911987
	C69.151703,85.592804 69.313095,85.390854 69.663582,85.101578
z"/>
<path fill="#1B4E80" opacity="1.000000" stroke="none"
	d="
M102.118820,85.992462
	C102.081108,85.814201 102.043404,85.635948 102.091461,85.198181
	C102.407715,85.079445 102.600197,85.260590 102.860611,85.651283
	C102.966553,85.820435 102.971031,86.008926 102.760902,86.037598
	C102.550774,86.066277 102.118820,85.992462 102.118820,85.992462
z"/>
<path fill="#C5D1DC" opacity="1.000000" stroke="none"
	d="
M70.783356,30.191677
	C70.982506,30.557871 70.812660,30.767851 70.347336,30.965340
	C70.271294,30.726814 70.392128,30.421019 70.783356,30.191677
z"/>
<path fill="#1FA6E0" opacity="1.000000" stroke="none"
	d="
M69.119232,86.350830
	C69.007828,86.192207 69.430977,86.062965 69.649879,86.031570
	C69.904823,86.169998 69.940865,86.339828 69.899002,86.758141
	C69.591003,86.880417 69.394188,86.714691 69.119232,86.350830
z"/>
<path fill="#1FA6E0" opacity="1.000000" stroke="none"
	d="
M102.060501,86.246758
	C102.118820,85.992462 102.550774,86.066277 102.759293,86.131866
	C102.827133,86.414177 102.660027,86.608124 102.308807,86.890205
	C102.101486,86.834435 102.051834,86.667747 102.060501,86.246758
z"/>
<path fill="#EAF2F6" opacity="1.000000" stroke="none"
	d="
M70.118858,142.255707
	C70.386368,142.121826 70.589897,142.285507 70.882477,142.642334
	C70.694557,142.705887 70.389008,142.611816 70.118858,142.255707
z"/>
<path fill="#EAF2F6" opacity="1.000000" stroke="none"
	d="
M101.253403,142.837891
	C101.132797,142.577316 101.304565,142.383118 101.670052,142.107880
	C101.725594,142.290848 101.619598,142.583328 101.253403,142.837891
z"/>
</svg>
