<svg version="1.1" xmlns="http://www.w3.org/2000/svg" viewBox="0 0 170 170" >
<rect width="170" height="170" rx="85" fill="#000000" />
<path fill="#FFFFFF" opacity="1.000000" stroke="none"
	d="
M102.851746,113.201828
	C84.497513,103.920494 79.080803,84.698982 90.332504,69.953041
	C97.918190,60.011604 112.257294,56.426792 124.493431,61.412712
	C136.482117,66.297806 144.370239,78.991119 142.890701,91.016991
	C141.277679,104.127678 131.579224,113.809364 117.716911,115.082054
	C112.977135,115.517220 108.054634,113.962234 102.851746,113.201828
M105.591019,104.081429
	C111.865417,107.857750 118.391624,108.830757 124.881203,104.955109
	C130.499054,101.600060 132.827255,96.072586 132.795929,89.757996
	C132.750732,80.645790 126.421494,72.056519 117.792946,68.732506
	C104.997406,63.803242 93.167999,73.083130 94.848717,86.733704
	C95.727219,93.868828 98.979622,99.592743 105.591019,104.081429
z"/>
<path fill="#FFFFFF" opacity="1.000000" stroke="none" 
	d="
M34.603539,71.143791
	C34.033600,67.931160 33.465126,65.198128 32.767185,61.842686
	C36.231667,60.188389 39.858212,58.456703 44.246311,56.361374
	C44.246311,63.653519 44.246311,70.215118 44.246311,76.776726
	C44.246311,85.084297 44.112728,93.394958 44.305191,101.698067
	C44.395367,105.588348 45.114639,109.464043 45.583271,113.654579
	C41.625580,113.654579 37.117535,113.654579 32.617603,113.654579
	C36.481682,99.920876 33.835087,85.691193 34.603539,71.143791
z"/>
</svg>
