<svg version="1.1" xmlns="http://www.w3.org/2000/svg" viewBox="0 0 120 120" >
<rect width="120" height="120" rx="60" fill="#ffbf00" />
<path fill="#ff6600" opacity="1.000000" stroke="none"
	d="
M45.016426,58.031754
	C45.016426,56.227180 45.016426,54.422604 45.016426,52.370735
	C43.051521,52.144600 41.443378,51.959522 39.417122,51.726326
	C39.417122,48.083630 39.417122,44.383858 39.417122,40.282707
	C40.945446,40.127148 42.542812,39.964561 44.501305,39.765217
	C44.765839,38.130615 45.045071,36.405163 45.376823,34.355179
	C47.033653,34.139553 48.772453,33.913261 50.753849,33.655399
	C50.905346,31.916637 51.045643,30.306488 51.211430,28.403728
	C52.865398,28.196070 54.460934,27.995749 56.416660,27.750204
	C56.740471,26.386923 57.098522,24.879490 57.493977,23.214569
	C67.215530,23.214569 76.804245,23.214569 86.698410,23.214569
	C86.896622,24.784895 87.073570,26.186804 87.273193,27.768337
	C89.149391,27.928146 90.759445,28.065287 92.658844,28.227074
	C92.849876,29.935852 93.029373,31.541471 93.249817,33.513363
	C94.880653,33.771492 96.611267,34.045410 98.671555,34.371510
	C98.671555,44.036480 98.671555,53.755547 98.671555,63.727409
	C96.916641,63.891720 95.311287,64.042030 93.419075,64.219200
	C93.161247,66.001778 92.910027,67.738686 92.623100,69.722458
	C90.952057,69.887604 89.342064,70.046722 87.441139,70.234589
	C87.180649,71.968292 86.919632,73.705475 86.622467,75.683258
	C84.981682,75.866371 83.372025,76.046013 81.447380,76.260803
	C81.194603,77.937813 80.932686,79.675514 80.627396,81.700958
	C77.008888,81.700958 73.413849,81.700958 69.458992,81.700958
	C69.205078,80.055740 68.939262,78.333366 68.624603,76.294563
	C67.032059,76.127335 65.423607,75.958435 63.466202,75.752892
	C63.214546,74.107895 62.949287,72.373947 62.624901,70.253510
	C61.051060,70.168900 59.446007,70.082611 57.436985,69.992531
	C57.033016,69.988739 57.021072,70.052666 57.012909,69.615730
	C56.930477,67.508850 56.856216,65.838905 56.773502,63.978928
	C54.437454,63.978928 52.692394,63.978928 50.984070,63.979065
	C51.020802,63.979198 51.021072,64.052666 51.012909,63.615738
	C50.930481,61.508858 50.856220,59.838909 50.773510,57.978928
	C48.438072,57.978928 46.692707,57.978928 44.979301,57.972958
	C45.011261,57.966988 45.016426,58.031754 45.016426,58.031754
z"/>
<path fill="#FFFFFF" opacity="1.000000" stroke="none"
	d="
M57.000633,69.986160
	C56.968246,71.790634 56.968246,73.597687 56.968246,75.670959
	C58.638485,75.881279 60.054977,76.059654 61.729141,76.270470
	C61.729141,78.043808 61.729141,79.778252 61.729141,81.984451
	C56.232113,81.984451 50.815876,81.984451 45.233414,81.984451
	C45.086845,84.049843 44.972275,85.664375 44.832375,87.635780
	C43.134727,87.828278 41.393749,88.025688 39.333405,88.259315
	C39.152298,89.935783 38.963417,91.684242 38.744114,93.714264
	C35.003315,93.714264 31.271774,93.714264 27.267628,93.714264
	C27.267628,89.892342 27.267628,86.166229 27.267628,82.220947
	C29.035971,82.089882 30.650091,81.970245 32.661301,81.821175
	C32.839088,80.149673 33.024288,78.408501 33.243771,76.345001
	C34.922359,76.159645 36.671806,75.966454 38.884151,75.722153
	C38.884151,70.019188 38.884151,64.275383 38.884151,58.004829
	C40.933228,58.004829 42.528545,58.004829 44.570145,58.018291
	C45.016426,58.031754 45.011261,57.966988 45.001671,58.411659
	C44.992077,60.532833 44.992077,62.209335 44.992077,64.052666
	C47.502010,64.052666 49.261543,64.052666 51.021072,64.052666
	C51.021072,64.052666 51.020802,63.979198 51.006439,64.417763
	C50.992077,66.532837 50.992077,68.209335 50.992077,70.052666
	C53.502010,70.052666 55.261543,70.052666 57.021072,70.052666
	C57.021072,70.052666 57.033016,69.988739 57.000633,69.986160
z"/>
</svg>